<?xml version="1.0" encoding="UTF-8"?>
<svg version="1.1" viewBox="0 0 455.44 455.44" xmlns="http://www.w3.org/2000/svg">
 <g transform="translate(-138.34 -210.36)">
  <g transform="translate(1463.1 -263.01)" stroke="#e48355" stroke-linecap="round" stroke-linejoin="round">
   <path d="m-1059.6 495.37c-113.61 0-205.72 92.106-205.72 205.72s92.106 205.72 205.72 205.72c49.658 0 95.205-17.579 130.75-46.875-113.28-0.38814-205-92.346-205-205.72 0-63.955 29.191-121.11 74.969-158.84-0.24-8.2e-4 -0.4786 0-0.7188 0z" color="#000000" fill="#fff5c8" stroke-width="4"/>
   <path d="m-1171.5 528.79c18.005-8.9084 32.268-13.977 56.686-17.758" color="#000000" fill="none" stroke-width="5"/>
   <path d="m-1191.5 544.05c11.713-5.4564 23.815-10.245 35.528-13.053" color="#000000" fill="none" stroke-width="5"/>
   <path d="m-1207.3 558.21c24.211-12.78 40.597-17.081 60.774-20.483" color="#000000" fill="none" stroke-width="5"/>
   <path d="m-1227.1 583.43c14.124-7.7078 35.022-15.927 54.559-20.985" color="#000000" fill="none" stroke-width="5"/>
   <path d="m-1217.7 570.84c5.1997-3.7315 14.172-7.8185 25.597-11.842" color="#000000" fill="none" stroke-width="5"/>
   <path d="m-1241.7 606.24c20.631-11.294 40.97-18.783 68.807-24.207" color="#000000" fill="none" stroke-width="5"/>
   <path d="m-1234.1 594.39c9.5965-4.9532 21.246-9.6257 35.582-14.935" color="#000000" fill="none" stroke-width="5"/>
   <path d="m-1249.6 627.9c15.938-9.5205 36.429-15.284 58.32-19.738" color="#000000" fill="none" stroke-width="5"/>
   <path d="m-1244.2 616.99c5.8081-3.745 16.106-8.435 24.956-11.454" color="#000000" fill="none" stroke-width="5"/>
   <path d="m-1257.5 650.19c23.525-13.767 43.238-17.051 63.082-20.693" color="#000000" fill="none" stroke-width="5"/>
   <path d="m-1253.5 638.86c6.6917-3.9511 22.53-10.655 31.73-13.216" color="#000000" fill="none" stroke-width="5"/>
   <path d="m-1261.6 670.84c14.659-8.362 32.272-15.047 53.646-19.281" color="#000000" fill="none" stroke-width="5"/>
   <path d="m-1259.1 660.72c9.5901-5.944 22.686-11.787 35.204-14.564" color="#000000" fill="none" stroke-width="5"/>
   <path d="m-1263.9 690.27c21.028-11.453 44.123-18.443 68.953-23.113" color="#000000" fill="none" stroke-width="5"/>
   <path d="m-1262.7 680.43c7.5631-4.345 16.26-8.3898 24.896-11.321" color="#000000" fill="none" stroke-width="5"/>
   <path d="m-1262.8 708.77c17.491-7.0236 36.252-14 60.857-20.76" color="#000000" fill="none" stroke-width="5"/>
   <path d="m-1262.4 699.43c8.8003-4.7295 28.202-11.43 35.009-13.053" color="#000000" fill="none" stroke-width="5"/>
   <path d="m-1261.5 727.94c15.828-5.98 32.039-11.192 48.455-15.995" color="#000000" fill="none" stroke-width="5"/>
   <path d="m-1262.1 718.17c9.5927-4.2604 22.052-8.3068 35.268-12.274" color="#000000" fill="none" stroke-width="5"/>
   <path d="m-1257.2 745.21 41.92-13.238" color="#000000" fill="none" stroke-width="5"/>
   <path d="m-1258.9 736.42 31.889-10.198" color="#000000" fill="none" stroke-width="5"/>
   <path d="m-1252.4 762.53 43.513-13.741" color="#000000" fill="none" stroke-width="5"/>
   <path d="m-1255 754.05 27.199-8.698" color="#000000" fill="none" stroke-width="5"/>
   <path d="m-1249.2 771.54 35.139-11.237" color="#000000" fill="none" stroke-width="5"/>
   <path d="m-1246.3 780.22 59.118-18.669" color="#000000" fill="none" stroke-width="5"/>
   <path d="m-1238.8 795.98c18.293-4.8257 36.366-10.531 54.33-16.674" color="#000000" fill="none" stroke-width="5"/>
   <path d="m-1242.5 787.82c9.1977-2.9933 16.936-5.4504 30.001-9.6035" color="#000000" fill="none" stroke-width="5"/>
   <path d="m-1228.7 812.37c19.692-4.7989 40.002-10.711 61.574-18.894" color="#000000" fill="none" stroke-width="5"/>
   <path d="m-1233.5 804.32c7.4096-2.0362 14.044-3.7248 22.994-6.367" color="#000000" fill="none" stroke-width="5"/>
   <path d="m-1217.9 827.51c23.944-5.9187 44.839-13.209 65.578-20.571" color="#000000" fill="none" stroke-width="5"/>
   <path d="m-1223.3 819.94c7.2736-1.5816 21.346-5.2709 35.726-10.65" color="#000000" fill="none" stroke-width="5"/>
   <path d="m-1205.4 842.26c12.772-2.152 31.926-8.4094 54.351-16.457" color="#000000" fill="none" stroke-width="5"/>
   <path d="m-1211.8 834.95c10.712-2.5189 19.355-4.6597 30.602-8.6966" color="#000000" fill="none" stroke-width="5"/>
   <path d="m-1189.8 856.79c12.259-1.1518 34.527-8.1341 53.164-15.277" color="#000000" fill="none" stroke-width="5"/>
   <path d="m-1197.6 849.6c11.693-1.6356 19.378-3.8286 28.76-7.1444" color="#000000" fill="none" stroke-width="5"/>
   <path d="m-1181.7 863.84c9.9966-1.9897 20.861-4.585 36.186-8.9853" color="#000000" fill="none" stroke-width="5"/>
   <path d="m-1173.1 870.32c12.952-2.144 25.748-5.1855 38.358-9.3137" color="#000000" fill="none" stroke-width="5"/>
   <path d="m-1151.6 882.46c19.545-1.4921 39.089-7.8568 58.634-16.801" color="#000000" fill="none" stroke-width="5"/>
   <path d="m-1162.5 876.37c8.3887-0.85467 16.777-2.2746 25.134-4.5852" color="#000000" fill="none" stroke-width="5"/>
   <path d="m-1124.4 893.78c20.085-2.7084 39.859-8.141 59.242-17.001" color="#000000" fill="none" stroke-width="5"/>
   <path d="m-1137.7 888.41c12.237-1.3328 23.032-4.1667 32.558-7.8011" color="#000000" fill="none" stroke-width="5"/>
   <path d="m-1108.9 898.5c9.4495-1.3848 18.792-2.7828 29.414-6.2404" color="#000000" fill="none" stroke-width="5"/>
   <path d="m-1091.3 902.42c11.252-1.5042 22.274-3.6966 32.99-6.8098" color="#000000" fill="none" stroke-width="5"/>
   <path d="m-1070.7 905.58c14.968-0.23936 47.966-9.2266 68.73-20.004" color="#000000" fill="none" stroke-width="5"/>
   <path d="m-1100.2 526.97c-14.482 18.943-25.845 40.398-33.322 63.596m-5.1562 111.28c4.5088 20.329 11.934 39.561 21.815 57.235m85.037 83.639c19.125 10.278 40.008 17.708 62.081 21.723" color="#000000" fill="none" stroke-width="5"/>
   <path d="m-1141.8 724.17c2.3807 7.7927 5.198 15.395 8.4233 22.778" color="#000000" fill="none" stroke-width="5"/>
   <path d="m-1068.2 829.96c14.719 11.13 31.069 20.455 48.808 27.559" color="#000000" fill="none" stroke-width="5"/>
   <path d="m-1025 903.82c30.072-8.1271 56.804-22.807 74.563-36.96" color="#000000" fill="none" stroke-width="5"/>
   <path d="m-1211.5 576.53c-11.253 13.835-20.664 29.229-27.856 45.808m-14.836 55.232c-0.8766 7.5354-1.3273 15.201-1.3273 22.972 0 10.063 0.7558 19.95 2.2137 29.606m52.288 106.29c24.768 25.904 56.546 45.048 92.286 54.387" color="#000000" fill="none" stroke-width="5"/>
   <path d="m-1216.8 601.65c-3.8533 5.944-9.0219 16.877-12.736 29.482m10.208 162.38c7.3915 12.716 16.249 24.473 26.342 35.04m83.552 50.426c14.394 5.5844 25.418 8.4323 42.498 9.306" color="#000000" fill="none" stroke-width="5"/>
   <path d="m-1157 609.52c-0.01-8e-3 -0.017-0.0169-0.025-0.0252-0.6643-0.67442-1.4011-1.232-2.1864-1.6731m-5.8855-1.1996c-2.2959 0.24039-4.546 1.2667-6.3252 3.0729-4.03 4.0912-4.1184 10.635-0.1972 14.616 1.7138 1.7399 3.9094 2.7027 6.1753 2.8931" color="#000000" fill="none" stroke-width="5"/>
   <path d="m-1162.6 613.94c-1.2778-0.74574-2.9291-0.51275-4.0346 0.68533-0.769 0.83335-1.1071 1.9529-1.0101 3.0234" color="#000000" fill="none" stroke-width="5"/>
   <path d="m-1183.3 703.01c-0.028 2e-3 -0.055 4e-3 -0.083 7e-3 -13.122 1.0419-22.899 12.741-21.836 26.131 1.0631 13.389 12.563 23.4 25.685 22.358 5.7355-0.45538 10.832-2.9448 14.663-6.7233" color="#000000" fill="none" stroke-width="5"/>
   <path d="m-1195.5 720.85c-0.012 0.0161-0.015 0.0323-0.022 0.049-3.4876 7.7424 0.1161 16.993 8.0479 20.661 5.7185 2.6444 12.126 1.6655 16.564-1.9878m5.3285-9.71c0.2574-2.0593 0.084-4.1331-0.4742-6.1031" color="#000000" fill="none" stroke-width="5"/>
   <path d="m-1146.5 679.11c-7.282 6.1416-13.314 13.607-17.735 21.966m-1.1086 65c4.457 9.1542 10.785 17.198 18.458 23.711 8.8567 7.5184 19.505 12.998 31.135 15.794" color="#000000" fill="none" stroke-width="5"/>
   <path d="m-1139.3 684.61c-3.5559 2.8996-6.7882 6.1497-9.646 9.6893m-10.732 60.774c3.3719 10.248 9.6183 19.735 18.827 27.726 3.2723 2.8189 6.8268 5.3214 10.61 7.4654m16.603 6.6588c3.7556 0.94886 7.6301 1.5816 11.588 1.8702" color="#000000" fill="none" stroke-width="5"/>
   <path d="m-1108.4 851.72c0.4366 1.5572 0.4736 3.2484 0.025 4.9238-1.3333 4.9757-6.4477 7.9285-11.423 6.5953-4.9757-1.3332-7.9285-6.4476-6.5953-11.423 0.8489-3.1682 3.2308-5.5162 6.1338-6.46" color="#000000" fill="none" stroke-width="5"/>
   <path d="m-1029.9 863.33c0.011 0.0138 0.028 0.0202 0.037 0.033 1.0117 0.8741 1.8615 1.8637 2.5593 2.9273 1.3619 2.0758 2.3186 4.6991 2.2327 8.1841-0.08 3.2593-1.3663 6.5234-3.748 9.1973-5.3947 6.0564-14.609 6.7837-20.58 1.6241-2.6099-2.255-4.1724-5.258-4.6462-8.4365" color="#000000" fill="none" stroke-width="5"/>
   <path d="m-1035.5 878.39c-2.029 2.2779-5.4946 2.5514-7.7404 0.61084" color="#000000" fill="none" stroke-width="5"/>
   <path d="m-1128.4 525.14c-1.7831-1.1589-4.1699-0.93954-5.8404 0.70401-1.162 1.1432-1.725 2.7271-1.6601 4.2708" color="#000000" fill="none" stroke-width="5"/>
  </g>
 </g>
</svg>
